<svg width="128" height="128" viewBox="0 0 128 128" fill="none" xmlns="http://www.w3.org/2000/svg">
  <path d="M113.889 19L71.889 54.111L79.444 34.056L113.889 19Z" fill="#E2761B" stroke="#E2761B" stroke-linecap="round" stroke-linejoin="round"/>
  <path d="M14.056 19L55.722 54.389L48.556 34.056L14.056 19Z" fill="#E4761B" stroke="#E4761B" stroke-linecap="round" stroke-linejoin="round"/>
  <path d="M98.889 84.889L87.889 101.889L111.889 108.111L118.667 85.222L98.889 84.889Z" fill="#E4761B" stroke="#E4761B" stroke-linecap="round" stroke-linejoin="round"/>
  <path d="M9.389 85.222L16.111 108.111L40.111 101.889L29.111 84.889L9.389 85.222Z" fill="#E4761B" stroke="#E4761B" stroke-linecap="round" stroke-linejoin="round"/>
  <path d="M38.889 58.111L32.444 68.111L56.222 69.111L55.444 43.778L38.889 58.111Z" fill="#E4761B" stroke="#E4761B" stroke-linecap="round" stroke-linejoin="round"/>
  <path d="M89.056 58.111L72.278 43.5L71.889 69.111L95.556 68.111L89.056 58.111Z" fill="#E4761B" stroke="#E4761B" stroke-linecap="round" stroke-linejoin="round"/>
  <path d="M40.111 101.889L54.889 95L42.111 85.389L40.111 101.889Z" fill="#E4761B" stroke="#E4761B" stroke-linecap="round" stroke-linejoin="round"/>
  <path d="M73.056 95L87.889 101.889L85.833 85.389L73.056 95Z" fill="#E4761B" stroke="#E4761B" stroke-linecap="round" stroke-linejoin="round"/>
</svg>