<svg width="128" height="128" viewBox="0 0 128 128" fill="none" xmlns="http://www.w3.org/2000/svg">
  <rect width="128" height="128" rx="64" fill="#AB9FF2"/>
  <path d="M110.584 64.9142H99.1422C99.1422 41.7651 80.1641 23 56.7564 23C33.7784 23 15.053 41.243 14.5724 63.9318C14.0918 87.4694 36.0165 107 59.7486 107H63.0367C83.6778 107 105.825 91.7667 109.865 71.8827C110.825 67.9415 110.584 64.9142 110.584 64.9142ZM39.7865 65.6747C39.7865 69.1372 36.9813 71.8827 33.5371 71.8827C30.0929 71.8827 27.2877 69.0979 27.2877 65.6747V56.9325C27.2877 53.47 30.0929 50.7245 33.5371 50.7245C36.9813 50.7245 39.7865 53.5093 39.7865 56.9325V65.6747ZM61.5547 65.6747C61.5547 69.1372 58.7495 71.8827 55.3053 71.8827C51.8611 71.8827 49.0559 69.0979 49.0559 65.6747V56.9325C49.0559 53.47 51.8611 50.7245 55.3053 50.7245C58.7495 50.7245 61.5547 53.5093 61.5547 56.9325V65.6747Z" fill="white"/>
</svg>